.
..............................Site Info...........................

 -   http://www.scenetime.com  *_*   

Due to high demands SceneTime is going to Close sign up on march/15, hurry up! get in before the doors are closed.

     We care to share . Join us on  http://www.scenetime.com 

    Be the first to get new release at  http://www.scenetime.com

        Seed back for speed


...................................NFO:.................................................








































          
          
              
              
                    
                    
                    
                    

Best.Laid.Plans.2012.BRRiP.AC3-5.1.XviD-SiC

Poster:
[img]http://img207.imageshack.us/img207/702/mv5bmji1odi4nje0nf5bml5.jpg[/img]

IMDB Link: 
http://www.imdb.com/title/tt1764198/

Description:
David Blair directs this powerful British Drama, loosely inspired by John 
Steinbeck's novel 'Of Mice and Men'

MediaInfo:
General
Complete name                    : Best.Laid.Plans.2012.BRRiP.AC3-5.1.XviD-SiC.avi
Format                           : AVI
Format/Info                      : Audio Video Interleave
File size                        : 1.40 GiB
Duration                         : 1h 47mn
Overall bit rate                 : 1 864 Kbps

Video
ID                               : 0
Format                           : MPEG-4 Visual
Format profile                   : Advanced Simple@L5
Format settings, BVOP            : Yes
Format settings, QPel            : No
Format settings, GMC             : No warppoints
Format settings, Matrix          : Default (H.263)
Muxing mode                      : Packed bitstream
Codec ID                         : XVID
Codec ID/Hint                    : XviD
Duration                         : 1h 47mn
Bit rate                         : 1 472 Kbps
Width                            : 720 pixels
Height                           : 304 pixels
Display aspect ratio             : 2.35:1
Frame rate                       : 24.000 fps
Resolution                       : 8 bits
Colorimetry                      : 4:2:0
Scan type                        : Progressive
Bits/(Pixel*Frame)               : 0.280
Stream size                      : 1.11 GiB (79%)
Writing library                  : XviD 64

Audio
ID                               : 1
Format                           : AC-3
Format/Info                      : Audio Coding 3
Format_Settings_ModeExtension    : CM (complete main)
Codec ID                         : 2000
Duration                         : 1h 47mn
Bit rate mode                    : Constant
Bit rate                         : 384 Kbps
Channel(s)                       : 6 channels
Channel positions                : Front: L C R, Side: L R, LFE
Sampling rate                    : 48.0 KHz
Stream size                      : 296 MiB (21%)
Alignment                        : Aligned on interleaves
Interleave, duration             : 64 ms (1.54 video frames)
Interleave, preload duration     : 192 ms
Title                            : 6ch English

Screenshots:
[img]http://img32.imageshack.us/img32/1075/bestlaidplans2012brripa.png[/img]
[img]http://img51.imageshack.us/img51/1075/bestlaidplans2012brripa.png[/img]
[img]http://img28.imageshack.us/img28/1075/bestlaidplans2012brripa.png[/img]
[img]http://img545.imageshack.us/img545/1075/bestlaidplans2012brripa.png[/img]

Note: 
      

Source : BluRay-7sinS Thanks!!!

Enjoy!

Respects to T00NG0D, ELEKTRI4KA, PA, YeFsTe, MrRep and everyone in the struggle...